<svg id="Layer_1" data-name="Layer 1" xmlns="http://www.w3.org/2000/svg" xmlns:xlink="http://www.w3.org/1999/xlink" viewBox="0 0 433.5 433.5"><defs><style>.cls-1{fill:url(#linear-gradient);}.cls-2{fill:#fff;}</style><linearGradient id="linear-gradient" x1="34.32" y1="354.79" x2="422.11" y2="61.36" gradientUnits="userSpaceOnUse"><stop offset="0" stop-color="#fcc052"/><stop offset="1" stop-color="#fca14f"/></linearGradient></defs><circle class="cls-1" cx="216.75" cy="216.75" r="216.75"/><path class="cls-2" d="M271,243.35l17.88,0q19.11,0,32.92-13.81t13.81-32.59V138.58q0-18.83-13.81-32.62T288.85,92.17H139.54a5.65,5.65,0,0,0-5.65,5.66V117.3a5.65,5.65,0,0,1-5.65,5.66H103.58a5.65,5.65,0,0,0-5.66,5.65V331.9a5.65,5.65,0,0,0,5.66,5.65h18.14a5.65,5.65,0,0,0,5.66-5.65V316.73a5.65,5.65,0,0,1,5.65-5.65h14.08a5.65,5.65,0,0,0,5.65-5.66V235.84a5.65,5.65,0,0,1,5.64-5.65l62.9-.12a5.65,5.65,0,0,1,5.67,5.65v42.11a5.65,5.65,0,0,0,5.65,5.65h17.62a5.65,5.65,0,0,1,5.65,5.65v17.62a5.65,5.65,0,0,0,5.65,5.65h17.62a5.65,5.65,0,0,1,5.66,5.65v17.62a5.65,5.65,0,0,0,5.65,5.66h32.69a5.65,5.65,0,0,0,5.65-5.66V303a5.65,5.65,0,0,0-5.65-5.65H305.54a5.65,5.65,0,0,1-5.65-5.65V274.06a5.65,5.65,0,0,0-5.65-5.65H276.62a5.65,5.65,0,0,1-5.65-5.66v-19.4Zm-119.64-109H289.45A5.65,5.65,0,0,1,295.1,140v54.4a5.65,5.65,0,0,1-5.65,5.66H151.33a5.65,5.65,0,0,1-5.65-5.66V140A5.65,5.65,0,0,1,151.33,134.38Z"/></svg>